<svg width="311" height="87" viewBox="0 0 311 87" fill="none" xmlns="http://www.w3.org/2000/svg">
<g clip-path="url(#clip0_1_83)">
<path d="M292.86 66.49C288.71 66.49 285.45 65.85 283.05 64.58C280.65 63.31 278.96 61.44 277.95 59C276.94 56.5 276.44 53.45 276.44 49.83V48.79H288.88C288.88 51.39 289.09 53.33 289.52 54.61C290 55.83 291.14 56.44 292.95 56.44C294.17 56.44 295.08 56.07 295.66 55.32C296.24 54.58 296.62 53.27 296.78 51.41C296.99 49.5 297.1 46.89 297.1 43.6V37.86C296.41 38.98 295.35 39.83 293.91 40.41C292.53 40.99 290.96 41.34 289.21 41.45C285.81 41.5 283.07 40.65 281 38.9C278.93 37.15 277.44 34.78 276.54 31.81C275.64 28.83 275.18 25.59 275.18 22.08C275.18 17.56 275.74 13.68 276.85 10.44C278.02 7.13996 279.91 4.58996 282.51 2.78996C285.11 0.979956 288.57 0.0799561 292.87 0.0799561C297.17 0.0799561 300.55 0.929956 303.15 2.62996C305.75 4.32996 307.64 6.71996 308.81 9.79996C310.03 12.83 310.64 16.42 310.64 20.56V44.64C310.64 48.84 310.14 52.59 309.13 55.88C308.17 59.18 306.42 61.78 303.87 63.69C301.32 65.5499 297.65 66.48 292.87 66.48L292.86 66.49ZM293.02 31.25C294.08 31.25 294.93 30.96 295.57 30.37C296.21 29.79 296.71 29.23 297.08 28.7V18.18C297.08 16.69 296.97 15.34 296.76 14.11C296.55 12.83 296.15 11.82 295.56 11.08C294.98 10.28 294.07 9.87996 292.85 9.87996C291.63 9.87996 290.8 10.31 290.22 11.16C289.64 11.96 289.24 13.18 289.02 14.83C288.86 16.42 288.78 18.42 288.78 20.81C288.78 22.88 288.83 24.72 288.94 26.31C289.1 27.85 289.47 29.07 290.06 29.98C290.64 30.83 291.63 31.26 293.01 31.26L293.02 31.25Z" fill="#89B1D0"></path>
<path d="M254.16 66.72C250.28 66.72 247.04 65.95 244.43 64.41C241.83 62.82 239.86 60.64 238.53 57.87C237.2 55.11 236.54 51.89 236.54 48.22V18.96C236.54 15.19 237.15 11.89 238.37 9.06998C239.65 6.19998 241.59 3.96998 244.19 2.36998C246.79 0.77998 250.12 -0.0200195 254.15 -0.0200195C258.18 -0.0200195 261.48 0.77998 264.04 2.36998C266.64 3.95998 268.56 6.19998 269.78 9.06998C271.06 11.89 271.69 15.18 271.69 18.96V48.22C271.69 51.83 271.03 55.05 269.7 57.87C268.37 60.63 266.4 62.81 263.8 64.41C261.2 65.95 257.98 66.72 254.15 66.72H254.16ZM254.16 54.85C255.44 54.85 256.34 54.45 256.87 53.65C257.45 52.8 257.8 51.84 257.91 50.78C258.07 49.66 258.15 48.71 258.15 47.91V19.29C258.15 18.39 258.1 17.38 257.99 16.26C257.88 15.09 257.54 14.08 256.95 13.23C256.42 12.33 255.49 11.87 254.16 11.87C252.83 11.87 251.87 12.32 251.29 13.23C250.76 14.08 250.44 15.09 250.33 16.26C250.22 17.38 250.17 18.39 250.17 19.29V47.91C250.17 48.71 250.25 49.66 250.41 50.78C250.57 51.84 250.91 52.8 251.45 53.65C252.03 54.45 252.94 54.85 254.16 54.85Z" fill="#89B1D0"></path>
<path d="M215.19 66.72C210.46 66.72 206.87 65.9 204.43 64.25C202.04 62.55 200.42 60.18 199.57 57.16C198.72 54.14 198.29 50.62 198.29 46.64H211.12C211.12 49.08 211.25 51.08 211.52 52.62C211.79 54.16 212.26 55.28 212.95 55.97C213.69 56.61 214.73 56.9 216.06 56.85C217.44 56.8 218.42 56.24 219.01 55.18C219.59 54.12 219.94 52.6 220.05 50.64C220.21 48.62 220.29 46.2 220.29 43.39C220.29 41.26 220.16 39.38 219.89 37.73C219.68 36.08 219.2 34.78 218.46 33.82C217.77 32.81 216.71 32.31 215.27 32.31C213.94 32.31 212.85 32.79 212 33.74C211.15 34.7 210.54 36.18 210.17 38.2H198.69L199.89 0.969971H230.02V12.13H210.57L209.85 25.44C210.38 24.7 211.39 24.06 212.88 23.53C214.37 22.95 215.96 22.57 217.66 22.41C220.96 22.04 223.72 22.65 225.95 24.24C228.24 25.78 229.94 28.15 231.05 31.33C232.22 34.52 232.8 38.42 232.8 43.05C232.8 46.5 232.59 49.69 232.16 52.62C231.73 55.49 230.91 57.99 229.69 60.11C228.47 62.18 226.69 63.8 224.35 64.97C222.01 66.14 218.96 66.72 215.18 66.72H215.19Z" fill="#89B1D0"></path>
<path d="M155.22 84.8699V1.13989H192.85V13.7499H173.73V34.5299H188.31V47.3499H173.73V72.3699H193.06V84.8799H155.23L155.22 84.8699Z" fill="#152A43"></path>
<path d="M128.53 86.11C123.29 86.11 118.92 85.18 115.4 83.32C111.89 81.46 109.23 78.6 107.44 74.74C105.65 70.81 104.65 65.75 104.44 59.54L120.26 57.16C120.33 60.74 120.64 63.64 121.19 65.84C121.81 68.05 122.64 69.63 123.67 70.6C124.77 71.56 126.08 72.05 127.6 72.05C129.53 72.05 130.77 71.4 131.32 70.09C131.94 68.78 132.25 67.4 132.25 65.96C132.25 62.51 131.42 59.62 129.77 57.28C128.12 54.87 125.88 52.46 123.05 50.04L115.81 43.73C112.64 41.04 109.95 38.01 107.75 34.63C105.61 31.18 104.55 26.95 104.55 21.92C104.55 14.82 106.65 9.41 110.86 5.69C115.06 1.9 120.78 0 128.02 0C132.5 0 136.08 0.76 138.77 2.27C141.53 3.79 143.59 5.78 144.97 8.27C146.42 10.68 147.38 13.27 147.86 16.02C148.41 18.71 148.72 21.29 148.79 23.77L132.87 25.73C132.8 23.25 132.63 21.11 132.35 19.32C132.14 17.46 131.66 16.05 130.9 15.08C130.14 14.05 128.97 13.53 127.39 13.53C125.67 13.53 124.39 14.25 123.57 15.7C122.81 17.15 122.43 18.59 122.43 20.04C122.43 23.14 123.15 25.69 124.6 27.69C126.12 29.62 128.08 31.65 130.49 33.79L137.42 39.89C141.07 42.99 144.14 46.51 146.62 50.43C149.17 54.36 150.44 59.22 150.44 65.01C150.44 68.94 149.54 72.52 147.75 75.76C145.96 78.93 143.41 81.45 140.1 83.31C136.86 85.17 133 86.1 128.52 86.1L128.53 86.11Z" fill="#152A43"></path>
<path d="M51.32 84.8699L67.13 1.13989H88.22L103.83 84.8699H86.77L83.98 67.1899H71.68L68.79 84.8699H51.32ZM73.34 56.1299H82.23L77.79 23.4599L73.35 56.1299H73.34Z" fill="#152A43"></path>
<path d="M0 84.8699V1.13989H21.81C25.39 1.13989 28.77 1.41989 31.94 1.96989C35.18 2.51989 38.04 3.58989 40.52 5.16989C43 6.68989 44.93 8.88989 46.31 11.7899C47.76 14.6199 48.48 18.3699 48.48 23.0599C48.48 26.4399 47.96 29.2999 46.93 31.6399C45.97 33.9099 44.55 35.7399 42.69 37.1199C40.9 38.4999 38.73 39.4299 36.18 39.9099C39.42 40.3199 42.14 41.3899 44.35 43.1099C46.56 44.7599 48.21 46.9999 49.31 49.8299C50.48 52.6599 51.07 56.0699 51.07 60.0599C51.07 64.3999 50.48 68.1599 49.31 71.3299C48.21 74.4299 46.59 76.9799 44.45 78.9799C42.31 80.9799 39.66 82.4599 36.49 83.4199C33.39 84.3799 29.81 84.8699 25.74 84.8699H0ZM18.5 71.9499H22.43C26.5 71.9499 29.29 70.9199 30.8 68.8499C32.39 66.7799 33.18 63.7499 33.18 59.7499C33.18 56.5799 32.84 54.0599 32.15 52.1999C31.46 50.3399 30.32 48.9999 28.74 48.1699C27.15 47.2699 25.02 46.8299 22.33 46.8299H18.51V71.9499H18.5ZM18.5 34.6299H22.12C24.95 34.6299 27.08 34.2199 28.53 33.3899C29.98 32.4899 30.94 31.2199 31.42 29.5699C31.97 27.9199 32.25 25.9199 32.25 23.5699C32.25 21.3599 31.84 19.5399 31.01 18.0899C30.25 16.5699 29.08 15.4399 27.5 14.6799C25.98 13.9199 24.05 13.5399 21.71 13.5399H18.51V34.6299H18.5Z" fill="#152A43"></path>
<path d="M276.99 73.8642V78.0658C276.99 79.1139 278.208 79.965 279.711 79.965H308.269C309.772 79.965 311 79.1049 310.99 78.0568C310.98 76.6413 310.959 75.2348 310.929 73.8373C310.909 72.7981 309.701 71.965 308.208 71.965H279.711C278.208 71.965 276.99 72.816 276.99 73.8642Z" fill="#89B1D0"></path>
<path d="M237.99 73.8642V78.0658C237.99 79.1139 239.208 79.965 240.71 79.965H269.27C270.772 79.965 271.99 79.1139 271.99 78.0658V73.8642C271.99 72.816 270.772 71.965 269.27 71.965H240.71C239.208 71.965 237.99 72.816 237.99 73.8642Z" fill="#89B1D0"></path>
<path d="M199.051 73.8373C199.02 75.2438 199 76.6413 198.99 78.0568C198.99 79.1049 200.208 79.965 201.711 79.965H230.269C231.772 79.965 232.99 79.1139 232.99 78.0658V73.8642C232.99 72.816 231.772 71.965 230.269 71.965H201.772C201.279 71.965 199.071 72.7981 199.051 73.8373Z" fill="#89B1D0"></path>
</g>
<defs>
<clipPath id="clip0_1_83">
<rect width="310.99" height="86.11" fill="white"></rect>
</clipPath>
</defs>
</svg>